<?xml version="1.0" encoding="utf-8"?>
<!-- Generator: Adobe Illustrator 18.1.1, SVG Export Plug-In . SVG Version: 6.00 Build 0)  -->
<svg version="1.1" id="Layer_1" xmlns="http://www.w3.org/2000/svg" xmlns:xlink="http://www.w3.org/1999/xlink" x="0px" y="0px"
	 viewBox="0 322.6 612 146.6" enable-background="new 0 322.6 612 146.6" xml:space="preserve">
<g>
	<g id="t_1_">
		<g>
			<path fill="#FFFFFF" d="M590.2,422.9c0,5.9-4.9,10.5-10.8,10.5c-5.9,0-10.8-4.7-10.8-10.5v-63.6c0-5.9,4.9-10.5,10.8-10.5
				c5.9,0,10.8,4.7,10.8,10.5v10H601c5.9,0,10.8,4.7,10.8,10.5s-4.9,10.5-10.8,10.5s-10.8,4.7-10.8,10.5V422.9z"/>
		</g>
	</g>
	<g id="e_1_">
		<g>
			<path fill="#FFFFFF" d="M549.1,412.2l10.8-10.8c0-17.9-14.7-32.3-32.6-32.3c-17.9,0-32.6,14.4-32.6,32.3s14.7,32.3,32.6,32.3
				h21.8c5.9,0,10.8-4.9,10.8-10.8C560.1,417.1,555.2,412.2,549.1,412.2z M536.4,397.2l-13,13c-0.5,0.5-1,0.5-1.7,0.2l0,0
				c-0.7-0.5-1.2-1-1.7-1.5c-4.4-4.2-4.4-11,0-15.2c4.4-4.2,11-4.2,15.4,0c0.5,0.5,1,1,1.5,1.7l0,0
				C536.8,396,536.8,396.7,536.4,397.2z"/>
		</g>
	</g>
	<g id="n2_1_">
		<g>
			<path fill="#FFFFFF" d="M488.9,401.4c0-17.9-14.7-32.3-32.6-32.3H445v8.1c-1.2-4.7-5.4-8.1-10.5-8.1c-5.9,0-10.8,4.9-10.8,10.8
				v21.5v21.5c0,5.9,4.9,10.8,10.8,10.8s10.8-4.9,10.8-10.8v-21.5c0-5.9,4.9-10.8,10.8-10.8s10.8,4.9,10.8,10.8v21.5
				c0,5.9,4.9,10.8,10.8,10.8s10.8-4.9,10.8-10.8L488.9,401.4L488.9,401.4z"/>
		</g>
	</g>
	<g id="a_1_">
		<g>
			<path fill="#FFFFFF" d="M383.6,412.2c-5.9,0-10.8-4.9-10.8-10.8s4.9-10.8,10.8-10.8s10.8,4.9,10.8,10.8
				C394.6,407.3,389.7,412.2,383.6,412.2z M416.4,401.4c0-17.9-14.7-32.3-32.6-32.3c-17.9,0-32.6,14.4-32.6,32.3
				c0,17.6,14.7,32.3,32.6,32.3h11.3v-8.3c1.2,4.7,5.4,8.1,10.5,8.1c5.9,0,10.8-4.9,10.8-10.8V401.4"/>
		</g>
	</g>
	<g id="v_1_">
		<g>
			<path fill="#FFFFFF" d="M344.2,370.3c-5.4-2.7-11.8-0.5-14.4,4.9l-12,23.7l-12-23.7c-2.7-5.4-9.1-7.3-14.4-4.9
				c-5.4,2.7-7.6,9.1-4.9,14.4l21.3,42.4c2,3.9,4.9,6.6,10,6.6l0,0l0,0c4.9,0,8.1-3.2,10-6.6l21.3-42.4
				C351.8,379.4,349.6,373,344.2,370.3z"/>
		</g>
	</g>
	<g id="o_1_">
		<g>
			<path fill="#FFFFFF" d="M250.9,369.1c-17.9,0-32.6,14.4-32.6,32.3c0,17.6,14.4,32.3,32.6,32.3c17.9,0,32.6-14.4,32.6-32.3
				S269,369.1,250.9,369.1z M250.9,411.9c-5.9,0-10.8-4.9-10.8-10.8c0-5.9,4.9-10.8,10.8-10.8c5.9,0,10.8,4.9,10.8,10.8
				C261.7,407.3,256.8,411.9,250.9,411.9z"/>
		</g>
	</g>
	<g id="n_1_">
		<g>
			<path fill="#FFFFFF" d="M212.5,401.4c0-17.9-14.7-32.3-32.6-32.3h-11.3v8.1c-1.2-4.7-5.4-8.1-10.5-8.1c-5.9,0-10.8,4.9-10.8,10.8
				v21.5v21.5c0,5.9,4.9,10.8,10.8,10.8s10.8-4.9,10.8-10.8v-21.5c0-5.9,4.9-10.8,10.8-10.8c5.9,0,10.8,4.9,10.8,10.8v21.5
				c0,5.9,4.9,10.8,10.8,10.8c5.9,0,10.8-4.9,10.8-10.8L212.5,401.4z"/>
		</g>
	</g>
</g>
<g>
	<g>
		<path fill="#FFFFFF" d="M103.6,400.7c-19.1,0-34.5,15.4-34.5,34.3c0,18.8,15.4,34.3,34.5,34.3s34.5-15.4,34.5-34.3
			C138.1,416.1,122.6,400.7,103.6,400.7z M103.6,446.4c-6.4,0-11.5-5.1-11.5-11.3s5.1-11.3,11.5-11.3c6.4,0,11.5,5.1,11.5,11.3
			S109.9,446.4,103.6,446.4z"/>
	</g>
	<path fill="#FFFFFF" d="M103.6,322.6C84.5,322.6,69,338,69,356.8s15.4,34.3,34.5,34.3s34.5-15.4,34.5-34.3S122.6,322.6,103.6,322.6
		z M103.6,368.1c-6.4,0-11.5-5.1-11.5-11.3s5.1-11.3,11.5-11.3c6.4,0,11.5,5.1,11.5,11.3S109.9,368.1,103.6,368.1z"/>
	<path fill="#FFFFFF" d="M35.5,362C16.6,362,1,377.4,1,396c0,18.8,15.4,34.3,34.5,34.3S70,414.8,70,396C70,377.4,54.6,362,35.5,362z
		 M35.5,407.5c-6.4,0-11.5-5.1-11.5-11.3c0-6.1,5.1-11.3,11.5-11.3S47,390.1,47,396.2C47,402.4,41.9,407.5,35.5,407.5z"/>
</g>
</svg>
